<?xml version="1.0" encoding="iso-8859-1"?>
<svg version="1.1" id="Layer_1" xmlns="http://www.w3.org/2000/svg" xmlns:xlink="http://www.w3.org/1999/xlink" x="0px" y="0px"
	 viewBox="0 0 512 512" style="enable-background:new 0 0 512 512;" xml:space="preserve">
	<path d="M458.667,21.333H53.333C23.936,21.333,0,45.269,0,74.667V352c0,29.397,23.936,53.333,53.333,53.333h149.035
		c-1.536,42.304-12.096,64-31.701,64c-5.888,0-10.667,4.779-10.667,10.667c0,5.888,4.779,10.667,10.667,10.667h170.667
		c5.888,0,10.645-4.779,10.645-10.667c0-5.888-4.779-10.667-10.667-10.667c-19.605,0-30.165-21.696-31.701-64h149.056
		C488.064,405.333,512,381.397,512,352V74.667C512,45.269,488.064,21.333,458.667,21.333z M208.96,469.333
		c8.875-14.187,13.611-35.819,14.613-64h64.832c1.003,28.181,5.739,49.813,14.613,64H208.96z M490.667,352
		c0,17.643-14.357,32-32,32H53.333c-17.643,0-32-14.357-32-32v-32h469.333V352z M490.667,298.667H21.333v-224
		c0-17.643,14.357-32,32-32h405.333c17.643,0,32,14.357,32,32V298.667z"/>
	<path d="M416.427,362.667c5.888,0,10.667-4.779,10.667-10.667c0-5.888-4.779-10.667-10.667-10.667h-0.213
		c-5.888,0-10.56,4.779-10.56,10.667C405.653,357.888,410.539,362.667,416.427,362.667z"/>
	<path d="M256,373.333c11.776,0,21.333-9.557,21.333-21.333s-9.557-21.333-21.333-21.333s-21.333,9.557-21.333,21.333
		S244.224,373.333,256,373.333z"/>
</svg>
